<svg width="512" height="512" xmlns="http://www.w3.org/2000/svg" preserveAspectRatio="xMidYMid meet" version="1.0">

 <g>
  <title>Layer 1</title>
  <g id="svg_1" fill="#000000" transform="translate(0 512) scale(0.1 -0.1)">
   <path fill="#5f00bf" id="svg_2" d="m1530,4346l-1025,-593l0,-1194l0,-1193l1027,-593l1028,-594l1028,594l1027,593l0,1193l0,1194l-1028,593c-566,327 -1029,594 -1030,593c-1,0 -463,-267 -1027,-593zm171,-486c223,-46 517,-165 782,-317l77,-45l78,45c42,24 122,67 177,95c712,356 1232,327 1315,-73c45,-215 -105,-579 -379,-917l-70,-88l69,-86c164,-205 304,-452 356,-629c30,-102 38,-260 17,-330c-63,-206 -269,-308 -561,-277c-126,13 -298,55 -437,107c-114,42 -373,165 -487,231l-78,45l-77,-45c-115,-66 -374,-189 -488,-231c-139,-52 -311,-94 -437,-107c-244,-26 -431,40 -516,182c-47,78 -57,122 -55,235c0,76 7,122 27,190c52,177 192,424 356,629l69,86l-70,88c-219,271 -365,569 -385,784c-21,231 109,400 341,444c90,17 244,11 376,-16z"/>
   <path fill="#5f00bf" id="svg_3" d="m1319,3717c-67,-19 -110,-48 -143,-95c-26,-36 -30,-53 -34,-125c-5,-95 10,-166 62,-293c53,-131 187,-344 301,-481l37,-44l146,143c204,200 447,399 650,533c40,27 69,52 65,56c-20,20 -298,154 -413,198c-199,79 -340,112 -495,117c-88,3 -145,0 -176,-9z"/>
   <path fill="#5f00bf" id="svg_4" d="m3485,3716c-181,-35 -398,-114 -621,-227c-77,-39 -142,-74 -147,-78c-4,-4 39,-38 95,-77c210,-141 401,-299 614,-507l152,-148l37,45c114,136 248,349 301,480c52,127 67,198 62,293c-6,107 -34,154 -122,198c-55,27 -69,29 -180,32c-71,1 -150,-3 -191,-11z"/>
   <path fill="#5f00bf" id="svg_5" d="m2439,3239c-253,-173 -470,-353 -668,-552l-124,-125l52,-60c55,-63 270,-262 386,-358c96,-78 271,-208 383,-283l92,-62l93,62c111,75 286,205 382,283c116,96 331,295 386,358l52,60l-124,125c-198,199 -415,379 -668,552c-57,39 -112,71 -121,71c-9,0 -64,-32 -121,-71zm252,-391c69,-32 125,-88 158,-158c22,-46 26,-69 25,-135c0,-67 -5,-89 -27,-133c-34,-65 -92,-122 -155,-153c-38,-19 -63,-24 -132,-24c-73,0 -92,4 -137,28c-67,35 -116,84 -150,150c-39,75 -39,188 -2,267c77,163 261,232 420,158z"/>
   <path fill="#5f00bf" id="svg_6" d="m1479,2363c-204,-255 -339,-540 -339,-712c0,-126 36,-189 132,-232c78,-34 246,-38 388,-9c195,39 447,136 664,254l87,48l-88,60c-231,160 -426,321 -630,521l-151,149l-63,-79z"/>
   <path fill="#5f00bf" id="svg_7" d="m3425,2291c-202,-198 -397,-359 -628,-519l-88,-60l87,-48c217,-118 469,-215 664,-254c82,-17 130,-21 220,-18c133,5 200,27 250,84c126,144 13,500 -276,871c-36,45 -68,84 -72,87c-4,2 -75,-62 -157,-143z"/>
  </g>
  <path id="svg_8" d="m138,105" opacity="NaN" stroke="#000" fill="#fff"/>
 </g>
</svg>